<svg xmlns="http://www.w3.org/2000/svg" width="960" height="320" viewBox="0 0 960 320">             <rect width="100%" height="100%" fill="#0B1020" />             <line x1="60" y1="20" x2="60" y2="275" stroke="#94A3B8" stroke-width="1" />             <line x1="60" y1="275" x2="940" y2="275" stroke="#94A3B8" stroke-width="1" />             <text x="60" y="14" fill="#E2E8F0" font-size="14">Trust Score Over Time</text>             <polyline fill="none" stroke="#38BDF8" stroke-width="3" points="60.00,20.00 74.92,20.00 89.83,20.00 104.75,20.00 119.66,20.00 134.58,20.00 149.49,20.00 164.41,20.00 179.32,20.00 194.24,20.00 209.15,20.00 224.07,20.00 238.98,20.00 253.90,20.00 268.81,20.00 283.73,20.00 298.64,20.00 313.56,20.00 328.47,20.00 343.39,20.00 358.31,60.03 373.22,100.07 388.14,140.10 403.05,180.14 417.97,220.17 432.88,260.21 447.80,274.23 462.71,274.23 477.63,274.23 492.54,274.23 507.46,274.23 522.37,274.23 537.29,274.23 552.20,274.23 567.12,274.23 582.03,274.23 596.95,274.23 611.86,274.23 626.78,274.23 641.69,274.23 656.61,274.23 671.53,274.23 686.44,274.23 701.36,274.23 716.27,274.23 731.19,274.23 746.10,274.23 761.02,274.23 775.93,274.23 790.85,274.23 805.76,274.23 820.68,274.23 835.59,274.23 850.51,274.23 865.42,274.23 880.34,274.23 895.25,274.23 910.17,274.23 925.08,274.23 940.00,274.23" />             <circle cx="358.31" cy="60.03" r="4" fill="#C0392B" /><circle cx="373.22" cy="100.07" r="4" fill="#C0392B" /><circle cx="388.14" cy="140.10" r="4" fill="#C0392B" /><circle cx="403.05" cy="180.14" r="4" fill="#C0392B" /><circle cx="417.97" cy="220.17" r="4" fill="#C0392B" /><circle cx="432.88" cy="260.21" r="4" fill="#C0392B" /><circle cx="447.80" cy="274.23" r="4" fill="#C0392B" /><circle cx="462.71" cy="274.23" r="4" fill="#C0392B" /><circle cx="477.63" cy="274.23" r="4" fill="#C0392B" /><circle cx="492.54" cy="274.23" r="4" fill="#C0392B" /><circle cx="507.46" cy="274.23" r="4" fill="#C0392B" /><circle cx="522.37" cy="274.23" r="4" fill="#C0392B" /><circle cx="537.29" cy="274.23" r="4" fill="#C0392B" /><circle cx="552.20" cy="274.23" r="4" fill="#C0392B" /><circle cx="567.12" cy="274.23" r="4" fill="#C0392B" /><circle cx="582.03" cy="274.23" r="4" fill="#C0392B" /><circle cx="596.95" cy="274.23" r="4" fill="#C0392B" /><circle cx="611.86" cy="274.23" r="4" fill="#C0392B" /><circle cx="626.78" cy="274.23" r="4" fill="#C0392B" /><circle cx="641.69" cy="274.23" r="4" fill="#C0392B" /><circle cx="656.61" cy="274.23" r="4" fill="#C0392B" /><circle cx="671.53" cy="274.23" r="4" fill="#C0392B" /><circle cx="686.44" cy="274.23" r="4" fill="#C0392B" /><circle cx="701.36" cy="274.23" r="4" fill="#C0392B" /><circle cx="716.27" cy="274.23" r="4" fill="#C0392B" /><circle cx="731.19" cy="274.23" r="4" fill="#C0392B" /><circle cx="746.10" cy="274.23" r="4" fill="#C0392B" /><circle cx="761.02" cy="274.23" r="4" fill="#C0392B" /><circle cx="775.93" cy="274.23" r="4" fill="#C0392B" /><circle cx="790.85" cy="274.23" r="4" fill="#C0392B" /><circle cx="805.76" cy="274.23" r="4" fill="#C0392B" /><circle cx="820.68" cy="274.23" r="4" fill="#C0392B" /><circle cx="835.59" cy="274.23" r="4" fill="#C0392B" /><circle cx="850.51" cy="274.23" r="4" fill="#C0392B" /><circle cx="865.42" cy="274.23" r="4" fill="#C0392B" /><circle cx="880.34" cy="274.23" r="4" fill="#C0392B" /><circle cx="895.25" cy="274.23" r="4" fill="#C0392B" /><circle cx="910.17" cy="274.23" r="4" fill="#C0392B" /><circle cx="925.08" cy="274.23" r="4" fill="#C0392B" /><circle cx="940.00" cy="274.23" r="4" fill="#C0392B" />             <text x="60" y="293" fill="#CBD5E1" font-size="12">0</text>             <text x="60" y="32" fill="#CBD5E1" font-size="12">1</text>             </svg>