<svg xmlns="http://www.w3.org/2000/svg" width="960" height="320" viewBox="0 0 960 320">             <rect width="100%" height="100%" fill="#0B1020" />             <line x1="60" y1="20" x2="60" y2="275" stroke="#94A3B8" stroke-width="1" />             <line x1="60" y1="275" x2="940" y2="275" stroke="#94A3B8" stroke-width="1" />             <text x="60" y="14" fill="#E2E8F0" font-size="14">Trust Score Over Time</text>             <polyline fill="none" stroke="#38BDF8" stroke-width="3" points="60.00,20.00 74.92,20.00 89.83,20.00 104.75,20.00 119.66,20.00 134.58,20.00 149.49,20.00 164.41,20.00 179.32,20.00 194.24,20.00 209.15,20.00 224.07,20.00 238.98,20.00 253.90,20.00 268.81,20.00 283.73,20.00 298.64,20.00 313.56,20.00 328.47,20.00 343.39,20.00 358.31,20.00 373.22,20.00 388.14,20.00 403.05,20.00 417.97,20.00 432.88,20.00 447.80,20.00 462.71,20.00 477.63,20.00 492.54,20.00 507.46,27.39 522.37,34.79 537.29,42.18 552.20,49.58 567.12,56.97 582.03,64.37 596.95,71.76 611.86,79.16 626.78,86.55 641.69,93.95 656.61,101.34 671.53,108.74 686.44,116.13 701.36,123.53 716.27,130.92 731.19,138.32 746.10,145.71 761.02,153.11 775.93,160.50 790.85,167.90 805.76,175.29 820.68,182.69 835.59,190.08 850.51,197.48 865.42,204.87 880.34,212.27 895.25,219.66 910.17,227.06 925.08,234.45 940.00,241.85" />             <circle cx="507.46" cy="27.39" r="4" fill="#F39C12" /><circle cx="522.37" cy="34.79" r="4" fill="#F39C12" /><circle cx="537.29" cy="42.18" r="4" fill="#F39C12" /><circle cx="552.20" cy="49.58" r="4" fill="#F39C12" /><circle cx="567.12" cy="56.97" r="4" fill="#F39C12" /><circle cx="582.03" cy="64.37" r="4" fill="#F39C12" /><circle cx="596.95" cy="71.76" r="4" fill="#F39C12" /><circle cx="611.86" cy="79.16" r="4" fill="#F39C12" /><circle cx="626.78" cy="86.55" r="4" fill="#F39C12" /><circle cx="641.69" cy="93.95" r="4" fill="#F39C12" /><circle cx="656.61" cy="101.34" r="4" fill="#F39C12" /><circle cx="671.53" cy="108.74" r="4" fill="#F39C12" /><circle cx="686.44" cy="116.13" r="4" fill="#F39C12" /><circle cx="701.36" cy="123.53" r="4" fill="#F39C12" /><circle cx="716.27" cy="130.92" r="4" fill="#F39C12" /><circle cx="731.19" cy="138.32" r="4" fill="#F39C12" /><circle cx="746.10" cy="145.71" r="4" fill="#F39C12" /><circle cx="761.02" cy="153.11" r="4" fill="#F39C12" /><circle cx="775.93" cy="160.50" r="4" fill="#F39C12" /><circle cx="790.85" cy="167.90" r="4" fill="#F39C12" /><circle cx="805.76" cy="175.29" r="4" fill="#F39C12" /><circle cx="820.68" cy="182.69" r="4" fill="#F39C12" /><circle cx="835.59" cy="190.08" r="4" fill="#F39C12" /><circle cx="850.51" cy="197.48" r="4" fill="#F39C12" /><circle cx="865.42" cy="204.87" r="4" fill="#F39C12" /><circle cx="880.34" cy="212.27" r="4" fill="#F39C12" /><circle cx="895.25" cy="219.66" r="4" fill="#F39C12" /><circle cx="910.17" cy="227.06" r="4" fill="#F39C12" /><circle cx="925.08" cy="234.45" r="4" fill="#F39C12" /><circle cx="940.00" cy="241.85" r="4" fill="#F39C12" />             <text x="60" y="293" fill="#CBD5E1" font-size="12">0</text>             <text x="60" y="32" fill="#CBD5E1" font-size="12">1</text>             </svg>